<svg viewBox="0 0 800 220" width="800" height="220" xmlns="http://www.w3.org/2000/svg">
  <defs>
    <pattern id="grid" width="32" height="32" patternUnits="userSpaceOnUse">
      <path d="M 32 0 L 0 0 0 32" fill="none" stroke="#000000" stroke-width="0.4" opacity="0.06"/>
    </pattern>
  </defs>

  <rect width="800" height="220" rx="12" fill="#f6f8fa"/>
  <rect width="800" height="220" rx="12" fill="url(#grid)"/>
  <rect x="0" y="0" width="4" height="220" rx="2" fill="#0d1117" opacity="0.7"/>

  <text x="28" y="46" font-family="monospace" font-size="11" fill="#aaa" letter-spacing="2">// vishva Patel.profile</text>
  <rect x="28" y="58" width="3" height="36" fill="#0d1117" opacity="0.15" rx="1"/>

  <text x="38" y="88" font-family="monospace" font-size="46" font-weight="bold" fill="#0d1117" letter-spacing="-1">Vishva Patel</text>
  <text x="38" y="138" font-family="monospace" font-size="26" font-weight="bold" fill="#555" letter-spacing="-0.5">Security Specialist  ·  AI Lead</text>

  <line x1="28" y1="160" x2="772" y2="160" stroke="#e0e0e0" stroke-width="1"/>

  <circle cx="38" cy="186" r="5" fill="#27c93f"/>
  <circle cx="38" cy="186" r="9" fill="#27c93f" opacity="0.15"/>
  <text x="56" y="191" font-family="monospace" font-size="12" fill="#666">Entrepreneur  ·  MS in CyberSecurity @ UT Dallas  ·  Dallas, TX</text>

  <rect x="624" y="28" width="160" height="20" rx="4" fill="#0d1117" opacity="0.08"/>
<text x="704" y="43" font-family="monospace" font-size="9" fill="#cc2200" text-anchor="middle">[ THREAT INTELLIGENCE ]</text>

<rect x="624" y="54" width="160" height="20" rx="4" fill="#0d1117" opacity="0.05"/>
<text x="704" y="69" font-family="monospace" font-size="9" fill="#444" text-anchor="middle">anomaly detect · IDS · RAG</text>

<rect x="624" y="80" width="160" height="20" rx="4" fill="#0d1117" opacity="0.05"/>
<text x="704" y="95" font-family="monospace" font-size="9" fill="#444" text-anchor="middle">RSA · DH · HMAC · OpenSSL</text>

<rect x="624" y="106" width="160" height="20" rx="4" fill="#0d1117" opacity="0.05"/>
<text x="704" y="121" font-family="monospace" font-size="9" fill="#444" text-anchor="middle">Azure · Docker · CI/CD</text>

<rect x="624" y="132" width="160" height="20" rx="4" fill="#cc220015" stroke="#cc220040" stroke-width="0.5"/>
<text x="704" y="147" font-family="monospace" font-size="9" fill="#cc2200" text-anchor="middle">AI &amp; Security Lead</text>
</svg>
