<svg viewBox="0 0 800 220" width="800" height="220" xmlns="http://www.w3.org/2000/svg">
  <defs>
    <pattern id="grid" width="32" height="32" patternUnits="userSpaceOnUse">
      <path d="M 32 0 L 0 0 0 32" fill="none" stroke="#000000" stroke-width="0.4" opacity="0.06"/>
    </pattern>
    <pattern id="dots" width="20" height="20" patternUnits="userSpaceOnUse">
      <circle cx="1.5" cy="1.5" r="1.5" fill="#0d1117" opacity="0.04"/>
    </pattern>
  </defs>

  <!-- Background -->
  <rect width="800" height="220" rx="12" fill="#f6f8fa"/>
  <rect width="800" height="220" rx="12" fill="url(#grid)"/>

  <!-- Accent bar top-left -->
  <rect x="0" y="0" width="4" height="220" rx="2" fill="#0d1117" opacity="0.7"/>

  <!-- Top label -->
  <text x="28" y="46" font-family="monospace" font-size="11" fill="#aaa" letter-spacing="2">// vishwaa_shah.profile</text>

  <!-- Blinking cursor accent -->
  <rect x="28" y="58" width="3" height="36" fill="#0d1117" opacity="0.15" rx="1"/>

  <!-- Main name line -->
  <text x="38" y="88" font-family="monospace" font-size="46" font-weight="bold" fill="#0d1117" letter-spacing="-1">Vishva Patel</text>

  <!-- Role line -->
  <text x="38" y="138" font-family="monospace" font-size="30" font-weight="bold" fill="#555" letter-spacing="-0.5">SWE  ·  Full-Stack  ·  AI Engineer</text>

  <!-- Divider -->
  <line x1="28" y1="160" x2="772" y2="160" stroke="#e0e0e0" stroke-width="1"/>

  <!-- Status row -->
  <circle cx="38" cy="186" r="5" fill="#27c93f"/>
  <circle cx="38" cy="186" r="9" fill="#27c93f" opacity="0.15"/>
  <text x="56" y="191" font-family="monospace" font-size="12" fill="#666">Open to opportunities  ·  CS Grad @ UT Dallas  ·  Dallas, TX</text>

  <!-- Right-side tag stack -->
  <rect x="630" y="26" width="140" height="26" rx="6" fill="#0d1117" opacity="0.06"/>
  <text x="700" y="44" font-family="monospace" font-size="11" fill="#444" text-anchor="middle">Python · React · Node</text>

  <rect x="630" y="58" width="140" height="26" rx="6" fill="#0d1117" opacity="0.06"/>
  <text x="700" y="76" font-family="monospace" font-size="11" fill="#444" text-anchor="middle">LangChain · pgvector</text>

  <rect x="630" y="90" width="140" height="26" rx="6" fill="#0d1117" opacity="0.06"/>
  <text x="700" y="108" font-family="monospace" font-size="11" fill="#444" text-anchor="middle">Docker · PostgreSQL</text>

  <rect x="630" y="122" width="140" height="26" rx="6" fill="#0d1117" opacity="0.06"/>
  <text x="700" y="140" font-family="monospace" font-size="11" fill="#444" text-anchor="middle">AWS · GitHub Actions</text>
</svg>
